<svg xmlns="http://www.w3.org/2000/svg" viewBox="0 0 20 20">
  <path
    d="M8.5 2.3L10 2L11.5 2.3L12 4C12.3 4.1 12.7 4.2 13 4.4L14.6 3.4L15.9 4.1L16.6 5.4L15.6 7C15.8 7.3 15.9 7.7 16 8L17.7 8.5L18 10L17.7 11.5L16 12C15.9 12.3 15.8 12.7 15.6 13L16.6 14.6L15.9 15.9L14.6 16.6L13 15.6C12.7 15.8 12.3 15.9 12 16L11.5 17.7L10 18L8.5 17.7L8 16C7.7 15.9 7.3 15.8 7 15.6L5.4 16.6L4.1 15.9L3.4 14.6L4.4 13C4.2 12.7 4.1 12.3 4 12L2.3 11.5L2 10L2.3 8.5L4 8C4.1 7.7 4.2 7.3 4.4 7L3.4 5.4L4.1 4.1L5.4 3.4L7 4.4C7.3 4.2 7.7 4.1 8 4L8.5 2.3Z"
    stroke="#FF9840"
    stroke-width="1.2"
    fill="none"
  />
  
  <circle
    cx="10"
    cy="10"
    r="3"
    stroke="#FF9840"
    stroke-width="1.5"
    fill="none"
  />
</svg>